<?xml version="1.0" encoding="UTF-8"?>
<svg version="1.1" xmlns="http://www.w3.org/2000/svg" width="1920" height="1920">
<path d="M0 0 C633.6 0 1267.2 0 1920 0 C1920 633.6 1920 1267.2 1920 1920 C1286.4 1920 652.8 1920 0 1920 C0 1286.4 0 652.8 0 0 Z " fill="#FEFEFE" transform="translate(0,0)"/>
<path d="M0 0 C0.88751953 -0.00635468 1.77503906 -0.01270935 2.68945312 -0.01925659 C21.81918217 -0.10443592 38.83728249 2.99172952 56.9375 9.0625 C57.74038452 9.32761383 58.54326904 9.59272766 59.3704834 9.86587524 C72.08562007 14.06750974 84.55912098 18.59241893 96.625 24.4375 C97.35976562 24.78844727 98.09453125 25.13939453 98.8515625 25.50097656 C110.25781211 31.01769181 120.50090774 37.84711482 130.625 45.4375 C131.64078125 46.19546875 132.6565625 46.9534375 133.703125 47.734375 C138.09942547 51.13031968 141.78429935 54.56667868 145.24609375 58.90625 C146.69164752 60.51151084 148.11018807 61.54705 149.9375 62.6875 C152.625 64.4375 152.625 64.4375 153.625 67.4375 C155.61136298 68.14376239 157.61348259 68.80643571 159.625 69.4375 C161.9375 70.8125 161.9375 70.8125 163.625 72.4375 C163.79 73.118125 163.955 73.79875 164.125 74.5 C164.43031796 76.55712066 164.43031796 76.55712066 166.20117188 77.52563477 C169.47435073 78.75703314 172.4120594 78.82011269 175.90625 78.96484375 C177.38883907 79.03351432 178.87142352 79.10228483 180.35400391 79.17114258 C181.13173157 79.20398346 181.90945923 79.23682434 182.71075439 79.2706604 C204.2346303 80.2008858 225.54177959 81.92397477 246.75 85.875 C247.79881348 86.06811768 248.84762695 86.26123535 249.92822266 86.46020508 C257.41570039 87.94521948 265.02580668 89.78095255 271.25 94.375 C272.625 96.4375 272.625 96.4375 273.1875 98.9375 C272.625 101.4375 272.625 101.4375 270.8671875 103.40625 C265.98291574 106.46627568 260.7874473 107.27998676 255.1875 108.4375 C248.29352432 109.90756863 241.47545173 111.43302665 234.7109375 113.42578125 C227.43792618 115.54764431 220.12046063 117.17026409 212.6875 118.625 C212.0215683 118.75711884 211.3556366 118.88923767 210.66952515 119.02536011 C201.75335355 120.77466245 193.04136405 121.85079377 183.9375 122 C175.50010243 122.16494269 169.00539695 122.98257333 161.625 127.4375 C161.05410645 127.77426758 160.48321289 128.11103516 159.89501953 128.45800781 C150.06026484 134.33975399 141.7921569 141.44959483 133.625 149.4375 C132.92246094 150.07816406 132.21992187 150.71882812 131.49609375 151.37890625 C108.78227107 172.5753128 99.51621606 198.65673307 98.37988281 229.10253906 C97.62977061 255.23103016 98.70958622 281.13301765 100.84240723 307.16659546 C102.93679276 333.37909649 103.16790723 359.59087206 103.375 385.875 C103.38780062 387.46340384 103.38780062 387.46340384 103.40085983 389.08389664 C103.50204951 401.86808835 103.56881705 414.6521819 103.60760498 427.43670654 C103.61980342 431.30666486 103.64005895 435.17649786 103.66551208 439.04638958 C103.68505384 442.14679178 103.69750882 445.24722244 103.7109375 448.34765625 C103.72371735 449.91150307 103.72371735 449.91150307 103.73675537 451.50694275 C103.77016336 465.45736326 99.69598344 478.01162891 95.37158203 491.14013672 C94.46995849 493.9145898 93.62244831 496.7034181 92.77856445 499.49584961 C81.3434211 537.06036637 62.42754228 570.3529536 41.625 603.4375 C41.08488281 604.30842285 40.54476563 605.1793457 39.98828125 606.07666016 C34.14020004 615.47831513 27.87471246 623.72869308 20.13623047 631.66235352 C16.00047034 635.90526597 12.26390144 640.27801273 8.6875 645 C4.74530112 650.1530576 0.75885673 654.46685102 -4.375 658.4375 C-5.48390684 659.31926478 -6.59189709 660.20218288 -7.69921875 661.0859375 C-13.26229242 665.50635405 -18.85027488 669.88631112 -24.62890625 674.0234375 C-26.55419085 675.52525672 -26.55419085 675.52525672 -28.7421875 677.875 C-31.34092327 680.40433334 -33.86041605 682.16182501 -36.9375 684.0625 C-41.37224291 686.93024605 -45.07873811 689.91800056 -48.8828125 693.61328125 C-55.2762818 699.63918385 -62.28246018 704.3173729 -69.6875 709 C-71.63599525 710.24749876 -73.58248083 711.49809395 -75.52896118 712.74873352 C-76.79133755 713.55920505 -78.05464622 714.36822651 -79.31893921 715.17570496 C-83.10937624 717.60096478 -86.81611022 720.11285765 -90.484375 722.71728516 C-98.2707853 728.21180266 -106.70729687 732.14496021 -115.37207031 736.06616211 C-121.43331525 738.84495223 -126.7393848 741.94227865 -132.12524414 745.86889648 C-138.92846252 750.61232329 -147.31605985 753.35394277 -155.07885742 756.16186523 C-167.08417366 760.51977773 -178.34024535 765.73508895 -189.6522522 771.64474487 C-206.80789804 780.57781786 -224.05484493 788.24882841 -242.27508545 794.72180176 C-242.96419006 794.96700562 -243.65329468 795.21220947 -244.36328125 795.46484375 C-245.03337219 795.70328003 -245.70346313 795.94171631 -246.39385986 796.18737793 C-255.05155114 799.32722128 -263.91898251 802.91976799 -271.5 808.1875 C-274.6727807 810.30028832 -277.48517609 810.98007468 -281.22265625 811.69140625 C-288.84351968 813.37394834 -295.64095798 816.34173541 -302.6875 819.625 C-303.96877886 820.21231753 -305.25035739 820.79898176 -306.53222656 821.38500977 C-310.15644575 823.04838023 -313.76737318 824.73843431 -317.375 826.4375 C-318.27976074 826.86353516 -319.18452148 827.28957031 -320.11669922 827.72851562 C-327.88904125 831.42249144 -335.46809495 835.25373135 -342.375 840.4375 C-342.98472656 840.87191406 -343.59445312 841.30632813 -344.22265625 841.75390625 C-349.72561461 845.99904555 -352.94112854 851.47915101 -356.375 857.4375 C-356.73335937 858.03868652 -357.09171875 858.63987305 -357.4609375 859.25927734 C-363.42043069 868.50513904 -363.42043069 868.50513904 -365.15234375 878.95703125 C-362.07990039 888.76105905 -356.33508238 897.68831772 -351.00073242 906.39819336 C-345.42794325 915.5382217 -340.44545772 925.01317401 -335.375 934.4375 C-334.78380371 935.53352539 -334.19260742 936.62955078 -333.58349609 937.75878906 C-326.3054435 951.25626842 -319.11793091 964.79449971 -312.08276367 978.4206543 C-308.10482114 986.10171305 -303.96079969 993.68039201 -299.76196289 1001.24243164 C-295.58682411 1008.84875524 -291.86742016 1016.64416827 -288.37841797 1024.58837891 C-285.35797564 1031.20713912 -281.14925652 1039.05037174 -274.375 1042.4375 C-272.65590588 1042.54337171 -270.93316746 1042.592852 -269.2109375 1042.61328125 C-268.17066406 1042.63712891 -267.13039063 1042.66097656 -266.05859375 1042.68554688 C-263.87649235 1042.72805534 -261.69414484 1042.75955237 -259.51171875 1042.77929688 C-253.16869378 1042.94703985 -247.47414173 1043.30549492 -242.375 1047.4375 C-240.875 1050.1875 -240.875 1050.1875 -240.375 1052.4375 C-247.45221931 1052.55859311 -254.34695301 1052.29123239 -261.375 1051.4375 C-260.59125 1051.581875 -259.8075 1051.72625 -259 1051.875 C-256.375 1053.4375 -256.375 1053.4375 -255.59765625 1055.57421875 C-255.10675332 1057.85673821 -254.72731381 1060.13041282 -254.375 1062.4375 C-245.75602185 1062.76877563 -237.91710691 1061.87635597 -229.5 1060.0625 C-228.41203125 1059.84078125 -227.3240625 1059.6190625 -226.203125 1059.390625 C-222.07635044 1058.53298236 -218.07823802 1057.68195893 -214.09375 1056.296875 C-204.28679119 1053.19697423 -192.4623693 1055.05657421 -183.375 1059.4375 C-177.1666073 1063.08887672 -170.70407797 1068.45026609 -168.375 1075.4375 C-173.31344812 1075.78444628 -176.22877106 1074.83439138 -180.5625 1072.5 C-184.8579645 1070.21226288 -184.8579645 1070.21226288 -189.375 1068.4375 C-189.313125 1069.489375 -189.25125 1070.54125 -189.1875 1071.625 C-189.38785882 1075.69896259 -189.84884621 1077.30158495 -192.375 1080.4375 C-196.07238861 1083.08818877 -198.65181825 1083.81972637 -203.17504883 1083.86987305 C-204.31585403 1083.88966721 -205.45665924 1083.90946136 -206.6320343 1083.92985535 C-207.85303329 1083.93624527 -209.07403229 1083.94263519 -210.33203125 1083.94921875 C-211.59013107 1083.96716995 -212.8482309 1083.98512115 -214.14445496 1084.00361633 C-217.47682254 1084.04855762 -220.80882365 1084.08088289 -224.14135742 1084.10705566 C-227.5468471 1084.13692125 -230.95210569 1084.18343079 -234.35742188 1084.22851562 C-241.02984107 1084.31348338 -247.70227562 1084.38181869 -254.375 1084.4375 C-253.75625 1085.571875 -253.1375 1086.70625 -252.5 1087.875 C-252.15195313 1088.51308594 -251.80390625 1089.15117188 -251.4453125 1089.80859375 C-250.46089976 1091.60368315 -250.46089976 1091.60368315 -248.375 1092.4375 C-246.08475595 1092.56929154 -243.79256526 1092.66795523 -241.5 1092.75 C-234.51139296 1093.11773244 -227.62946286 1094.08118688 -221.375 1097.4375 C-220.05078125 1099.57421875 -220.05078125 1099.57421875 -219.375 1101.4375 C-225.43903901 1104.4695195 -234.85448041 1102.21441297 -241.375 1101.4375 C-238.28532623 1108.69151668 -233.87444995 1113.83392965 -228.375 1119.4375 C-227.84261719 1119.994375 -227.31023438 1120.55125 -226.76171875 1121.125 C-208.83554739 1138.17107509 -181.20599956 1141.31622567 -157.70703125 1140.7890625 C-145.11815994 1140.25451137 -132.95081278 1137.79687568 -121.0625 1133.6875 C-112.14749703 1130.66691132 -102.16686965 1129.06354849 -93.2109375 1132.734375 C-90.39850215 1134.46144798 -87.91677922 1136.33450382 -85.375 1138.4375 C-84.43269531 1139.14390625 -83.49039062 1139.8503125 -82.51953125 1140.578125 C-75.56167297 1145.8774811 -75.56167297 1145.8774811 -74.375 1149.4375 C-76.025 1149.4375 -77.675 1149.4375 -79.375 1149.4375 C-79.375 1150.0975 -79.375 1150.7575 -79.375 1151.4375 C-78.26705078 1151.49357422 -78.26705078 1151.49357422 -77.13671875 1151.55078125 C-69.85742094 1152.02250195 -63.35306385 1153.38712734 -56.375 1155.4375 C-52.16254722 1156.53381082 -52.16254722 1156.53381082 -48.125 1155.5 C-38.82140445 1151.90542899 -29.85341446 1155.85688957 -21.23583984 1159.59082031 C-14.43081828 1162.6870962 -8.42974977 1166.0283794 -4.375 1172.4375 C-3.5625 1176.3125 -3.5625 1176.3125 -3.375 1179.4375 C-9.52357143 1179.06983733 -12.55255053 1177.20876323 -17.25 1173.375 C-22.85464829 1168.98479267 -22.85464829 1168.98479267 -29.75 1167.8125 C-31.544375 1168.121875 -31.544375 1168.121875 -33.375 1168.4375 C-33.045 1169.13875 -32.715 1169.84 -32.375 1170.5625 C-31.23859528 1173.82966358 -30.85329941 1176.00918185 -31.375 1179.4375 C-37.0045197 1183.88185766 -43.79760803 1183.32563507 -50.61279297 1182.80859375 C-57.16746456 1181.92799442 -63.52178699 1179.98526106 -69.84838867 1178.10400391 C-83.60979993 1174.02002693 -96.81510279 1173.10376543 -111.0625 1172.875 C-114.29569152 1172.81637778 -117.52872894 1172.75243613 -120.76171875 1172.68359375 C-121.53036255 1172.6676265 -122.29900635 1172.65165924 -123.09094238 1172.63520813 C-127.82450136 1172.52114374 -132.48086463 1172.19872802 -137.18579102 1171.64916992 C-141.11949422 1171.2688286 -145.05196415 1171.33230078 -149 1171.375 C-149.81339844 1171.37951172 -150.62679687 1171.38402344 -151.46484375 1171.38867188 C-153.43492898 1171.40026061 -155.40497536 1171.41818603 -157.375 1171.4375 C-140.8788078 1178.40468713 -123.7843442 1181.56983113 -106.1875 1184.5 C-80.67954341 1188.79562921 -80.67954341 1188.79562921 -72.3125 1198.9375 C-71.19843007 1201.90835314 -71.15539716 1204.28985932 -71.375 1207.4375 C-76.08407583 1206.94180781 -78.84705337 1205.76516557 -82.625 1202.9375 C-85.87526205 1200.48323975 -85.87526205 1200.48323975 -89.375 1198.4375 C-89.24480469 1199.04078125 -89.11460938 1199.6440625 -88.98046875 1200.265625 C-88.55584869 1202.72604031 -88.26306629 1204.9405173 -88.375 1207.4375 C-90.96255138 1210.23485284 -93.58831374 1212.26224381 -97.44580078 1212.640625 C-103.69006367 1212.7577278 -108.49122667 1211.778014 -114.25 1209.4375 C-115.05663086 1209.12643311 -115.86326172 1208.81536621 -116.69433594 1208.49487305 C-120.99201763 1206.82626871 -125.2573331 1205.0794652 -129.5234375 1203.33203125 C-130.37695801 1202.98462891 -131.23047852 1202.63722656 -132.10986328 1202.27929688 C-133.7140047 1201.62281656 -135.31441246 1200.95708443 -136.90966797 1200.27929688 C-141.65602651 1198.31891034 -146.35867514 1196.89429322 -151.34375 1195.65234375 C-160.44552017 1193.35061937 -168.97289916 1189.78740183 -177.625 1186.1875 C-179.27038001 1185.51052382 -180.91605291 1184.83425911 -182.56201172 1184.15869141 C-186.49067009 1182.54340227 -190.41478398 1180.91747175 -194.33654785 1179.28552246 C-196.1399771 1178.53527257 -197.94442485 1177.78747194 -199.74902344 1177.04003906 C-202.33458141 1175.96866553 -204.91806294 1174.89256504 -207.5 1173.8125 C-208.60166504 1173.35351318 -208.60166504 1173.35351318 -209.72558594 1172.88525391 C-212.63498296 1171.65912137 -215.47481288 1170.38530674 -218.2734375 1168.921875 C-224.92442807 1165.44658263 -230.93710477 1164.80516681 -238.31176758 1164.24902344 C-244.37493349 1163.73023698 -249.20272438 1162.31399069 -254.63671875 1159.4609375 C-260.67770384 1157.20310855 -266.3192893 1158.50456919 -272.29296875 1160.33203125 C-283.53023254 1163.4350999 -295.10463372 1163.57504406 -306.6875 1164.125 C-310.03347955 1164.29858131 -313.37920164 1164.47654685 -316.72489929 1164.6554718 C-318.78833483 1164.76425384 -320.85197839 1164.86919171 -322.91584778 1164.96940613 C-328.58094677 1165.25055748 -334.21476736 1165.66026276 -339.85971069 1166.21704102 C-344.13378337 1166.59165308 -348.39907272 1166.7003271 -352.6875 1166.75 C-353.96850586 1166.79350586 -353.96850586 1166.79350586 -355.27539062 1166.83789062 C-360.79812638 1166.89341697 -364.07172049 1166.24706992 -368.375 1162.4375 C-370.32926302 1159.56152487 -370.84015764 1156.64832586 -371.4375 1153.25 C-371.79684668 1150.04617047 -371.79684668 1150.04617047 -373.375 1147.4375 C-379.12700119 1146.89417495 -382.87984958 1148.28860822 -387.75 1151.125 C-388.40049316 1151.48787109 -389.05098633 1151.85074219 -389.72119141 1152.22460938 C-391.61338816 1153.28277354 -393.49456239 1154.35861954 -395.375 1155.4375 C-397.16536922 1156.43982106 -398.95677125 1157.44030388 -400.75 1158.4375 C-401.43835938 1158.829375 -402.12671875 1159.22125 -402.8359375 1159.625 C-404.375 1160.4375 -404.375 1160.4375 -405.375 1160.4375 C-405.34788989 1154.45971982 -404.53334754 1150.42019162 -400.30078125 1146.06640625 C-393.74400563 1140.52041146 -386.65306297 1137.45618553 -378.375 1135.4375 C-377.76245361 1135.26694092 -377.14990723 1135.09638184 -376.51879883 1134.9206543 C-365.63951607 1132.46875809 -353.37682784 1133.57529128 -343.3671875 1138.203125 C-339.14463937 1139.94506392 -334.9641416 1140.40897108 -330.4453125 1140.8828125 C-327.375 1141.4375 -327.375 1141.4375 -323.94921875 1142.96875 C-308.76626295 1149.20786626 -284.9448688 1142.25555847 -270.375 1136.4375 C-267.38563135 1134.60949405 -264.84913738 1132.91163738 -262.375 1130.4375 C-261.95833333 1126.9375 -261.95833333 1126.9375 -262.375 1123.4375 C-265.92211486 1121.07275676 -267.4306546 1121.1977246 -271.6328125 1121.19921875 C-272.89061523 1121.18656982 -274.14841797 1121.1739209 -275.44433594 1121.16088867 C-276.10719604 1121.15592377 -276.77005615 1121.15095886 -277.45300293 1121.14584351 C-293.11360577 1120.98637974 -305.64931391 1118.37350832 -320.07421875 1112.19140625 C-322.65301866 1111.34640051 -324.85492022 1111.21617765 -327.5625 1111.125 C-332.56301683 1110.86440969 -336.30460527 1109.20273442 -340.6875 1106.9375 C-345.73991609 1104.33997351 -349.57751264 1103.04231333 -355.375 1102.9375 C-362.67405747 1102.80448756 -367.85067546 1100.32797317 -374.1953125 1097.03125 C-380.6162035 1093.81291643 -387.20564998 1094.01028216 -394.26220703 1093.86767578 C-395.65700936 1093.83125039 -397.05147304 1093.77691295 -398.44482422 1093.70361328 C-408.26355435 1093.19643298 -414.09641999 1094.67579979 -421.82714844 1101.28613281 C-425.06891535 1104.02343159 -427.4361813 1105.00768558 -431.5 1106.125 C-432.14775391 1106.31030273 -432.79550781 1106.49560547 -433.46289062 1106.68652344 C-437.71956709 1107.86245461 -442.02246339 1108.81148371 -446.3359375 1109.75390625 C-448.5157178 1110.23134733 -450.69540274 1110.709224 -452.875 1111.1875 C-454.5293103 1111.54678589 -454.5293103 1111.54678589 -456.21704102 1111.91333008 C-465.28587572 1113.97392162 -473.79911098 1116.94940687 -482.37109375 1120.54199219 C-488.09796066 1122.8780566 -493.15112271 1124.41784713 -499.375 1123.4375 C-503.35693103 1121.44653448 -505.94964498 1118.83774733 -508.9375 1115.625 C-511.4773199 1112.97428707 -511.4773199 1112.97428707 -514.9375 1112 C-521.14758919 1115.66236029 -524.74373521 1123.39610372 -528.375 1129.4375 C-533.25 1127.5625 -533.25 1127.5625 -534.375 1126.4375 C-533.8493458 1118.41383495 -529.69731617 1112.90496568 -525.375 1106.4375 C-524.86453125 1105.6434375 -524.3540625 1104.849375 -523.828125 1104.03125 C-518.00218619 1095.52145174 -509.50631063 1091.07839552 -499.56491089 1088.80078125 C-490.28845189 1087.26192246 -480.4689525 1087.99099007 -471.09936523 1088.09765625 C-453.23368681 1088.256778 -438.46530455 1085.63883572 -422.875 1076.5625 C-415.56370192 1072.4375 -415.56370192 1072.4375 -413.375 1072.4375 C-413.065625 1071.81875 -412.75625 1071.2 -412.4375 1070.5625 C-411.75 1069.1875 -411.0625 1067.8125 -410.375 1066.4375 C-409.05620599 1055.63674399 -411.45495257 1045.73530872 -413.95483398 1035.27905273 C-416.22207331 1025.63482574 -417.73203986 1015.99994897 -418.90527344 1006.1652832 C-420.07010422 996.95284206 -422.2973776 988.18694239 -425.9375 979.625 C-429.14947639 971.35066953 -430.06732205 961.88479161 -431.1875 953.125 C-432.11206073 946.85339635 -434.00106488 941.07299638 -435.99145508 935.07885742 C-437.99749921 928.92880419 -439.51701423 922.75982575 -440.875 916.4375 C-442.36970097 909.51533898 -444.09203233 902.78763136 -446.3125 896.0625 C-451.29488401 880.88177355 -455.65720742 865.28407691 -457.08666992 849.32421875 C-457.54573679 845.42498408 -458.06507096 843.72025844 -461.00390625 841.0390625 C-464.61725663 839.32240705 -467.90044078 838.3898237 -471.8125 837.5625 C-477.55642929 836.28577511 -482.74445559 834.55583246 -488.125 832.1875 C-500.69517778 826.89265582 -512.10811708 829.55548825 -524.375 834.4375 C-529.52799577 836.71864833 -534.6084946 839.15175043 -539.6897583 841.58731079 C-551.4987631 847.23779953 -563.48744053 852.34698639 -575.625 857.25 C-576.98656723 857.80062103 -576.98656723 857.80062103 -578.37564087 858.36236572 C-589.80873163 862.96986956 -601.27049676 867.20877482 -612.98803711 871.03930664 C-623.42568912 874.57174986 -633.28304651 879.31374685 -643.18017578 884.12353516 C-658.98668855 891.79417068 -673.48942491 897.89579629 -691.375 896.4375 C-692.365 895.7775 -693.355 895.1175 -694.375 894.4375 C-696.60557489 879.77943641 -684.48147779 861.69985025 -676.16430664 850.32055664 C-671.18516297 843.70746741 -665.70188169 837.62214586 -659.6875 831.9375 C-656.43362086 828.72829654 -654.28009868 825.23606691 -652.015625 821.28515625 C-646.45265295 811.62942618 -640.15986617 802.58750523 -633.36083984 793.76708984 C-632.87180176 793.12980957 -632.38276367 792.4925293 -631.87890625 791.8359375 C-631.44392822 791.27567871 -631.0089502 790.71541992 -630.56079102 790.13818359 C-628.46320739 787.12979002 -627.375 785.15552367 -627.375 781.4375 C-641.42504672 777.44798056 -655.39506084 773.82876578 -669.81665039 771.43896484 C-675.17124344 770.53937828 -675.17124344 770.53937828 -677.375 769.4375 C-682.95708739 768.60109603 -688.4828265 768.3380146 -694.12109375 768.2265625 C-694.82174957 768.21220154 -695.5224054 768.19784058 -696.24429321 768.18304443 C-699.16808986 768.12572883 -702.09171015 768.07112552 -705.01586914 768.03613281 C-724.35226352 767.78599099 -724.35226352 767.78599099 -732.375 762.4375 C-734.38821114 762.19515657 -734.38821114 762.19515657 -736.578125 762.3125 C-737.39410156 762.32796875 -738.21007812 762.3434375 -739.05078125 762.359375 C-740.75131653 762.41098457 -742.45183776 762.46305913 -744.15234375 762.515625 C-744.97347656 762.53109375 -745.79460937 762.5465625 -746.640625 762.5625 C-747.38086914 762.58570313 -748.12111328 762.60890625 -748.88378906 762.6328125 C-751.375 762.4375 -751.375 762.4375 -754.62719727 761.44433594 C-758.91855939 760.2914744 -762.66081038 760.1449276 -767.07421875 760.203125 C-767.90153 760.20926819 -768.72884125 760.21541138 -769.58122253 760.22174072 C-777.94119939 760.34456197 -786.21892198 761.07516479 -794.53237915 761.91879272 C-799.24866731 762.39609715 -803.96796115 762.84131814 -808.6875 763.28515625 C-809.68888504 763.37956497 -810.69027008 763.47397369 -811.72200012 763.57124329 C-827.0588126 764.99275894 -842.42716915 766.03849873 -857.7902832 767.12988281 C-858.9100354 767.21021255 -860.0297876 767.2905423 -861.18347168 767.37330627 C-863.27965821 767.52340171 -865.3760045 767.67128938 -867.47253418 767.81651306 C-871.34526728 768.09347761 -875.15899158 768.40619106 -879.00317383 768.96337891 C-883.09728162 769.53906186 -887.14573068 769.69817259 -891.2734375 769.85546875 C-902.12314906 770.33814316 -912.90104177 771.34284187 -923.70556641 772.42120361 C-927.09626436 772.75960753 -930.48749545 773.09216044 -933.87890625 773.42333984 C-938.5070399 773.8757193 -943.13496262 774.33015833 -947.76269531 774.78662109 C-973.68434099 777.34139641 -999.60996235 779.83189617 -1025.57659912 781.88703918 C-1030.22828946 782.25736381 -1034.87665002 782.65630371 -1039.52445984 783.0723877 C-1058.38210071 784.74938877 -1077.12547353 785.72707816 -1096.0625 785.75 C-1096.99175293 785.75349457 -1097.92100586 785.75698914 -1098.87841797 785.7605896 C-1117.93749546 785.80067067 -1137.25655728 784.68650878 -1153.375 773.4375 C-1154.2825 772.839375 -1155.19 772.24125 -1156.125 771.625 C-1165.4628798 762.54650575 -1168.41160195 751.71595752 -1168.75 739 C-1168.77681652 722.51933505 -1160.8305442 708.68009627 -1153.375 694.4375 C-1152.19754831 692.15101996 -1151.03429851 689.85830983 -1149.875 687.5625 C-1149.20984375 686.26699219 -1149.20984375 686.26699219 -1148.53125 684.9453125 C-1146.04778489 679.55887804 -1144.31977995 674.41896122 -1145.375 668.4375 C-1146.6450799 665.54250635 -1148.32388782 663.02786359 -1150.125 660.4375 C-1157.96706928 648.76558293 -1162.53104426 638.90669912 -1161.375 624.4375 C-1159.90900235 619.52209613 -1157.88302537 617.79147456 -1153.43466187 615.35183716 C-1149.78074916 613.72977083 -1146.05591013 613.21988236 -1142.11328125 612.71484375 C-1140.75194817 612.53271584 -1140.75194817 612.53271584 -1139.3631134 612.34690857 C-1127.46308739 610.9032746 -1115.53225816 610.93892465 -1103.5625 611 C-1101.71341034 611.00356506 -1101.71341034 611.00356506 -1099.82696533 611.00720215 C-1075.77506893 611.0790369 -1052.01028356 612.67494445 -1028.09838867 615.15570068 C-1025.4234901 615.43248255 -1022.74803861 615.70300558 -1020.07226562 615.97119141 C-1013.42922698 616.63757479 -1006.78684402 617.30924931 -1000.14746094 618.01123047 C-990.27192124 619.05485727 -980.39593195 619.97948455 -970.5 620.8125 C-955.28987323 622.09922783 -940.11568746 623.69581303 -924.9375 625.3125 C-905.67343502 627.36398742 -886.40575781 629.36129153 -867.125 631.25 C-866.05863312 631.35495789 -864.99226624 631.45991577 -863.89358521 631.5680542 C-858.14955421 632.13268548 -852.40472655 632.68669774 -846.65789795 633.22213745 C-844.75895695 633.40127852 -842.86101975 633.59102154 -840.96337891 633.78344727 C-812.10320629 636.44609897 -780.73375433 636.72465766 -752.375 630.4375 C-751.5720752 630.27685059 -750.76915039 630.11620117 -749.94189453 629.95068359 C-734.06178953 626.76540113 -718.7481028 621.0392461 -703.44734192 615.82556152 C-698.07257688 613.99885395 -692.68152866 612.2297434 -687.27734375 610.4921875 C-666.72608871 603.89399444 -666.72608871 603.89399444 -647.375 594.4375 C-646.11914158 593.74231045 -644.8626046 593.04834561 -643.60546875 592.35546875 C-625.13298966 581.98562901 -606.7066059 569.93583718 -590.375 556.4375 C-589.84310059 555.99889648 -589.31120117 555.56029297 -588.76318359 555.10839844 C-577.58496175 545.85946207 -566.92538574 536.15756015 -556.6875 525.875 C-555.78966797 524.98103516 -554.89183594 524.08707031 -553.96679688 523.16601562 C-548.89339384 518.08517904 -544.02364342 512.90850071 -539.375 507.4375 C-538.37811893 506.2847109 -537.38073827 505.13235361 -536.3828125 503.98046875 C-527.93445447 494.1622235 -519.71851347 484.18597275 -511.74194336 473.98046875 C-507.63184738 468.73408134 -503.42997808 463.56559237 -499.21411133 458.40405273 C-495.69089568 454.08212321 -492.23382016 449.71532611 -488.8125 445.3125 C-484.59741584 439.89958204 -480.20571204 434.66554176 -475.71679688 429.47827148 C-471.943666 425.11696888 -468.27832229 420.67827778 -464.640625 416.203125 C-460.28785679 410.88974587 -455.82912595 405.66593347 -451.375 400.4375 C-450.87532715 399.85000977 -450.3756543 399.26251953 -449.86083984 398.65722656 C-444.1191408 391.91022845 -438.33314624 385.21763075 -432.37890625 378.65625 C-430.56188018 376.64441607 -428.77555608 374.61089566 -427 372.5625 C-423.58614119 368.64288433 -420.07401248 364.81582595 -416.55419922 360.99169922 C-413.72026628 357.9112536 -410.91179712 354.81081602 -408.125 351.6875 C-396.4244723 338.68372614 -384.25876233 326.15841023 -371.87475586 313.80688477 C-369.41206613 311.34962218 -366.95485798 308.88696683 -364.49804688 306.42382812 C-362.906571 304.83301213 -361.31478546 303.24250587 -359.72265625 301.65234375 C-359.00167252 300.92933578 -358.28068878 300.20632782 -357.53785706 299.46141052 C-353.51877292 295.46064056 -349.40017188 291.6391011 -345.10609436 287.93501282 C-343.18082512 286.2695257 -341.31941669 284.54920975 -339.48046875 282.7890625 C-338.84061035 282.18078613 -338.20075195 281.57250977 -337.54150391 280.94580078 C-336.88843262 280.32431152 -336.23536133 279.70282227 -335.5625 279.0625 C-330.16415165 273.95981427 -324.69256024 269.10701816 -318.8828125 264.4765625 C-316.29896966 262.37568094 -313.8350648 260.18163435 -311.375 257.9375 C-307.13279806 254.07609414 -302.75208978 250.43230866 -298.296875 246.8203125 C-286.88704943 237.51550822 -275.68304578 227.96281138 -265.375 217.4375 C-262.86620406 214.91630474 -260.34643018 212.40970936 -257.796875 209.9296875 C-251.50722181 203.7687699 -245.80641193 197.38289435 -240.375 190.4375 C-239.57320312 189.42945313 -238.77140625 188.42140625 -237.9453125 187.3828125 C-225.06306083 171.0550437 -214.20241386 153.41785068 -205.0625 134.75 C-196.67897 117.67835583 -187.14814751 101.39805677 -175.375 86.4375 C-174.61703125 85.468125 -173.8590625 84.49875 -173.078125 83.5 C-140.13168799 42.3753694 -96.47878289 16.44484985 -45.375 4.4375 C-44.44365234 4.2101416 -43.51230469 3.9827832 -42.55273438 3.74853516 C-28.45597813 0.42368384 -14.41319732 0.05288754 0 0 Z " fill="#000000" transform="translate(1335.375,400.5625)"/>
<path d="M0 0 C9.24 0 18.48 0 28 0 C28.66 2.31 29.32 4.62 30 7 C30.82886719 7.64453125 31.65773438 8.2890625 32.51171875 8.953125 C35.89418121 11.73555879 36.13040655 14.63752756 36.8125 18.75 C39.68563029 32.77321877 46.42035441 43.57708937 54.87329102 54.95703125 C69.69490603 74.98177644 81.19128742 97.32852317 92.96508789 119.21801758 C93.49223389 120.19794678 94.01937988 121.17787598 94.5625 122.1875 C95.0877124 123.16420654 95.6129248 124.14091309 96.15405273 125.1472168 C99.98271032 132.22528424 103.98154238 139.18977623 108.0625 146.125 C117.80826833 162.70103215 127.19553497 179.40993651 135 197 C135.39960937 197.89589844 135.79921875 198.79179688 136.2109375 199.71484375 C137 202 137 202 137 206 C135.81531128 206.14912842 135.81531128 206.14912842 134.60668945 206.30126953 C126.48596472 207.42273436 118.96923373 209.33488811 111.1875 211.875 C108.90708896 212.59381286 106.62583872 213.30996888 104.34375 214.0234375 C103.25449219 214.3647168 102.16523437 214.70599609 101.04296875 215.05761719 C75.53235553 222.95804779 75.53235553 222.95804779 65.6875 218.5 C64.800625 217.675 63.91375 216.85 63 216 C62.39027344 215.48695313 61.78054688 214.97390625 61.15234375 214.4453125 C50.62337626 204.99155749 44.80482209 191.74430444 43.0625 177.9375 C42.42209912 172.86856423 41.41357507 169.34832128 38.87109375 164.98046875 C37.42927101 161.70242332 37.53855894 158.31153725 37.33984375 154.7734375 C36.98904854 151.91062602 36.24879252 149.8659271 35.0625 147.25 C33.27565232 143.19474285 32.62246773 139.65767295 32.1875 135.25 C31.45687414 128.81536525 29.88929543 123.12366906 27.8125 117 C20.71787941 95.81825917 16.88387141 73.59755921 12.41625977 51.74072266 C9.49396414 37.45355744 6.29302163 23.43188783 1.92944336 9.50634766 C1.6794458 8.70245605 1.42944824 7.89856445 1.171875 7.0703125 C0.9459668 6.35633301 0.72005859 5.64235352 0.48730469 4.90673828 C0 3 0 3 0 0 Z " fill="#FCFCFC" transform="translate(900,1249)"/>
</svg>
