<?xml version="1.0" standalone="no"?>
<!DOCTYPE svg PUBLIC "-//W3C//DTD SVG 20010904//EN"
 "http://www.w3.org/TR/2001/REC-SVG-20010904/DTD/svg10.dtd">
<svg version="1.0" xmlns="http://www.w3.org/2000/svg"
 width="300.000000pt" height="300.000000pt" viewBox="0 0 300.000000 300.000000"
 preserveAspectRatio="xMidYMid meet">
<metadata>
Created by potrace 1.10, written by Peter Selinger 2001-2011
</metadata>
<g transform="translate(0.000000,300.000000) scale(0.100000,-0.100000)"
fill="#4A5D23" stroke="none">
<path d="M1956 2346 c-75 -32 -142 -97 -192 -188 -30 -55 -67 -96 -176 -200
-76 -71 -182 -183 -235 -247 -131 -158 -168 -196 -238 -241 -71 -45 -206 -90
-273 -90 -26 0 -135 9 -242 20 -243 24 -303 25 -321 4 -11 -13 -10 -21 5 -48
16 -31 16 -34 -3 -76 -27 -60 -26 -85 5 -109 34 -27 86 -27 384 -2 124 11 236
18 250 16 14 -2 61 -9 104 -14 44 -6 81 -13 83 -15 4 -3 -18 -36 -84 -128 -24
-32 -30 -58 -14 -58 11 0 166 60 234 90 38 17 56 20 85 13 32 -8 38 -14 49
-53 15 -49 73 -297 73 -309 0 -15 -72 -41 -115 -41 -44 0 -85 -24 -85 -50 0
-16 17 -12 24 6 5 12 9 14 20 5 15 -13 106 6 144 30 16 10 28 10 64 0 116 -36
134 -40 152 -38 29 3 31 -21 2 -29 -33 -8 -60 -8 -121 1 -37 5 -55 3 -70 -8
-11 -9 -17 -19 -12 -23 4 -4 13 -2 19 4 17 17 38 15 38 -4 0 -14 9 -15 78 -8
108 11 108 11 226 -35 110 -42 136 -48 136 -31 0 5 8 7 18 4 15 -5 15 -4 -1 9
-10 9 -41 18 -68 22 -27 4 -52 12 -55 17 -5 8 9 9 44 4 29 -3 75 -9 104 -12
37 -5 49 -4 44 5 -9 15 7 14 22 -1 6 -6 15 -8 19 -4 14 13 -30 36 -69 36 -21
0 -38 3 -38 8 0 4 -9 13 -20 19 -15 10 -31 10 -68 2 -59 -14 -111 -6 -147 23
-26 20 -26 22 -9 29 17 7 17 8 -3 8 -12 1 -25 6 -28 11 -4 6 13 10 44 10 31 0
51 4 51 11 0 6 7 9 15 5 8 -3 15 -1 15 5 0 18 -47 28 -84 18 -40 -11 -73 -1
-40 12 16 7 15 8 -7 8 -32 1 -46 17 -94 111 -21 41 -48 93 -61 115 -23 40 -23
41 -5 71 14 23 40 39 112 69 337 139 470 235 551 400 57 114 61 141 53 346 -8
215 -3 240 54 292 43 39 53 43 131 52 112 12 106 41 -10 51 -63 6 -79 12 -105
36 -89 85 -244 112 -359 64z m254 -45 c25 -12 61 -35 80 -51 l35 -30 -43 -40
c-77 -72 -83 -96 -80 -342 l3 -214 -42 -85 c-23 -46 -56 -101 -74 -122 -73
-88 -210 -170 -437 -263 -48 -20 -104 -49 -124 -65 -36 -28 -39 -29 -67 -14
-16 8 -36 13 -43 10 -7 -3 -31 4 -53 15 -52 27 -60 26 -166 -16 -50 -19 -94
-33 -97 -30 -3 3 6 26 19 50 23 45 23 45 4 66 -27 30 -46 36 -151 49 -69 8
-125 8 -254 -4 -259 -23 -355 -28 -385 -21 -25 6 -27 10 -20 44 3 20 9 61 12
90 l5 54 81 -7 c45 -4 144 -13 221 -21 202 -21 252 -19 354 14 146 47 213 100
378 299 110 132 173 197 287 298 71 62 98 96 180 230 75 121 247 169 377 106z
m-738 -1298 c13 -27 52 -97 86 -157 34 -60 62 -112 62 -116 0 -4 -15 -10 -32
-13 -18 -4 -43 -9 -55 -13 -32 -9 -47 22 -91 194 -38 151 -38 152 -16 152 16
0 28 -13 46 -47z m186 -315 c-3 -7 -15 -15 -28 -16 -21 -3 -22 -2 -11 12 16
19 44 21 39 4z"/>
</g>
</svg>
